<?xml version="1.0" encoding="UTF-8"?>
<svg width="31px" height="30px" viewBox="0 0 31 30" version="1.1" xmlns="http://www.w3.org/2000/svg" xmlns:xlink="http://www.w3.org/1999/xlink">
    <title>ui-logo-cyberstart-short</title>
    <g id="Logos" stroke="none" stroke-width="1" fill="none" fill-rule="evenodd">
        <g id="LOGOS" transform="translate(-967.000000, -306.000000)" fill="#FFFFFF">
            <g id="ui-logo-cyberstart-short" transform="translate(967.000000, 306.000000)">
                <path d="M8.43334439,30 C12.041641,30 13.2583922,27.7762238 13.2583922,25.006993 L13.2583922,21.2727273 C13.2583922,20.3916084 13.0486075,20.1398601 12.1675118,19.972028 L10.2794496,19.5944056 C9.44031088,19.4265734 9.18856926,19.6363636 9.18856926,20.4755245 L9.18856926,26.3916084 L4.23765066,26.3916084 L4.23765066,3.60839161 L9.18856926,3.60839161 L9.18856926,8.85314685 C9.18856926,9.69230769 9.44031088,9.9020979 10.2374927,9.73426573 L12.2094687,9.31468531 C13.0486075,9.14685315 13.2583922,8.8951049 13.2583922,8.01398601 L13.2583922,4.99300699 C13.2583922,2.22377622 12.041641,0 8.43334439,0 L4.86700472,0 C1.21675118,0 0,2.22377622 0,4.99300699 L0,25.006993 C0,27.7762238 1.21675118,30 4.86700472,30 L8.43334439,30 Z" id="C"></path>
                <path d="M25.185086,30 C28.8353395,30 30.0101338,27.7762238 30.0101338,25.006993 L30.0101338,17.8741259 C30.0101338,15.1048951 28.8353395,13.006993 25.185086,12.8391608 L23.0872391,12.7552448 C21.7026602,12.7132867 21.2411339,12.1678322 21.2411339,10.7832168 L21.2411339,4.99300699 C21.2411339,4.23776224 21.828531,3.60839161 22.499842,3.60839161 L24.555732,3.60839161 C25.2270429,3.60839161 25.7724831,4.23776224 25.7724831,4.99300699 L25.7724831,7.51048951 C25.7724831,8.34965035 26.0242248,8.55944056 26.8214066,8.39160839 L28.8353395,7.97202797 C29.6744783,7.8041958 29.884263,7.55244755 29.884263,6.67132867 L29.884263,4.99300699 C29.884263,2.22377622 28.7094687,0 25.0592152,0 L21.870488,0 C18.2202344,0 17.0034832,2.22377622 17.0034832,4.99300699 L17.0034832,11.6643357 C17.0034832,14.4335664 18.2202344,16.4895105 21.870488,16.6573427 L23.9683348,16.7412587 C25.3948707,16.8251748 25.7724831,17.2027972 25.7724831,18.6293706 L25.7724831,25.006993 C25.7724831,25.7622378 25.185086,26.3916084 24.555732,26.3916084 L21.828531,26.3916084 C21.15722,26.3916084 20.5698229,25.7622378 20.5698229,25.006993 L20.5698229,22.2377622 C20.5698229,21.3986014 20.3180813,21.1888112 19.5208995,21.3566434 L17.5489234,21.7762238 C16.7097847,21.9440559 16.5,22.1958042 16.5,23.0769231 L16.5,25.006993 C16.5,27.7762238 17.7167512,30 21.3670047,30 L25.185086,30 Z" id="S"></path>
            </g>
        </g>
    </g>
</svg>