<?xml version="1.0" encoding="UTF-8"?>
<svg width="48px" height="48px" viewBox="0 0 48 48" version="1.1" xmlns="http://www.w3.org/2000/svg" xmlns:xlink="http://www.w3.org/1999/xlink">
    <title>ui-icon-short</title>
    <g id="Logos" stroke="none" stroke-width="1" fill="none" fill-rule="evenodd">
        <g id="LOGOS" transform="translate(-779.000000, -288.000000)">
            <g id="ui-icon-short" transform="translate(779.000000, 288.000000)">
                <rect id="Rectangle" fill="#596F84" x="0" y="0" width="48" height="48" rx="11"></rect>
                <g id="ui-logo-cyberstart-short" transform="translate(9.500000, 10.000000)" fill="#0E243A">
                    <path d="M8.00897179,28.5 C11.435696,28.5 12.5912193,26.3874126 12.5912193,23.7566434 L12.5912193,20.2090909 C12.5912193,19.372028 12.3919912,19.1328671 11.5552329,18.9734266 L9.76217955,18.6146853 C8.96526693,18.4552448 8.72619315,18.6545455 8.72619315,19.4517483 L8.72619315,25.072028 L4.02440871,25.072028 L4.02440871,3.42797203 L8.72619315,3.42797203 L8.72619315,8.41048951 C8.72619315,9.20769231 8.96526693,9.40699301 9.72233392,9.24755245 L11.5950786,8.84895105 C12.3919912,8.68951049 12.5912193,8.45034965 12.5912193,7.61328671 L12.5912193,4.74335664 C12.5912193,2.11258741 11.435696,0 8.00897179,0 L4.62209317,0 C1.15552329,0 0,2.11258741 0,4.74335664 L0,23.7566434 C0,26.3874126 1.15552329,28.5 4.62209317,28.5 L8.00897179,28.5 Z" id="C"></path>
                    <path d="M23.9177525,28.5 C27.3843223,28.5 28.5,26.3874126 28.5,23.7566434 L28.5,16.9804196 C28.5,14.3496503 27.3843223,12.3566434 23.9177525,12.1972028 L21.9254709,12.1174825 C20.6105651,12.0776224 20.1722632,11.5594406 20.1722632,10.2440559 L20.1722632,4.74335664 C20.1722632,4.02587413 20.730102,3.42797203 21.3676321,3.42797203 L23.320068,3.42797203 C23.9575981,3.42797203 24.4755913,4.02587413 24.4755913,4.74335664 L24.4755913,7.13496503 C24.4755913,7.93216783 24.7146651,8.13146853 25.4717321,7.97202797 L27.3843223,7.57342657 C28.181235,7.41398601 28.3804631,7.17482517 28.3804631,6.33776224 L28.3804631,4.74335664 C28.3804631,2.11258741 27.2647854,0 23.7982156,0 L20.7699476,0 C17.3033777,0 16.1478545,2.11258741 16.1478545,4.74335664 L16.1478545,11.0811189 C16.1478545,13.7118881 17.3033777,15.665035 20.7699476,15.8244755 L22.7622292,15.9041958 C24.1169806,15.9839161 24.4755913,16.3426573 24.4755913,17.6979021 L24.4755913,23.7566434 C24.4755913,24.4741259 23.9177525,25.072028 23.320068,25.072028 L20.730102,25.072028 C20.0925719,25.072028 19.5347331,24.4741259 19.5347331,23.7566434 L19.5347331,21.1258741 C19.5347331,20.3286713 19.2956593,20.1293706 18.5385923,20.2888112 L16.6658477,20.6874126 C15.868935,20.8468531 15.6697069,21.086014 15.6697069,21.9230769 L15.6697069,23.7566434 C15.6697069,26.3874126 16.8252302,28.5 20.2918001,28.5 L23.9177525,28.5 Z" id="S"></path>
                </g>
            </g>
        </g>
    </g>
</svg>